<svg width="18" height="18" viewBox="0 0 18 18" fill="none" xmlns="http://www.w3.org/2000/svg">
<path fill-rule="evenodd" clip-rule="evenodd" d="M14.5874 7.75386C14.5874 5.2034 12.7564 3.06831 10.2894 2.50341V1.93848C10.2894 1.24895 9.71348 0.692322 9 0.692322C8.28654 0.692322 7.7106 1.24893 7.7106 1.93848V2.50341C5.24355 3.06833 3.41262 5.2034 3.41262 7.75386V12.3231L1.69342 13.9846V14.8154H16.3066V13.9846L14.5874 12.3231V7.75386ZM18 7.33847H16.2808C16.1519 5.13694 14.9828 3.20956 13.2206 2.00494L14.4499 0.816944C16.5129 2.32894 17.8711 4.68002 18 7.33847ZM3.54156 0.816944L4.77078 2.00494C3.01719 3.20956 1.84815 5.13694 1.7192 7.33847H0C0.128946 4.68002 1.48711 2.32894 3.54156 0.816944ZM9.34384 17.2745C9.23209 17.2994 9.12034 17.3077 9 17.3077C8.05443 17.3077 7.2808 16.56 7.2808 15.6461H10.7192C10.7192 15.8788 10.6676 16.0948 10.5817 16.2942C10.3668 16.7926 9.90258 17.1665 9.34384 17.2745Z" fill="#252525"/>
</svg>
