<svg width="21" height="19" viewBox="0 0 21 19" fill="none" xmlns="http://www.w3.org/2000/svg">
<path d="M4.7 18.3C4.51667 18.1167 4.425 17.8833 4.425 17.6C4.425 17.3167 4.51667 17.0833 4.7 16.9L9.475 12.1C9.85833 11.7167 10.3333 11.525 10.9 11.525C11.4667 11.525 11.9417 11.7167 12.325 12.1L14.4 14.175L18.875 9.7C19.075 9.5 19.3083 9.4 19.575 9.4C19.8417 9.4 20.075 9.5 20.275 9.7C20.475 9.9 20.575 10.1375 20.575 10.4125C20.575 10.6875 20.475 10.925 20.275 11.125L15.825 15.6C15.4417 15.9833 14.9708 16.175 14.4125 16.175C13.8542 16.175 13.3833 15.9833 13 15.6L10.9 13.5L6.1 18.3C5.91667 18.4833 5.6875 18.5792 5.4125 18.5875C5.1375 18.5958 4.9 18.5 4.7 18.3ZM2 18C1.45 18 0.979167 17.8042 0.5875 17.4125C0.195833 17.0208 0 16.55 0 16V2C0 1.45 0.195833 0.979167 0.5875 0.5875C0.979167 0.195833 1.45 0 2 0H16C16.55 0 17.0208 0.195833 17.4125 0.5875C17.8042 0.979167 18 1.45 18 2V6C18 6.28333 17.9042 6.52083 17.7125 6.7125C17.5208 6.90417 17.2833 7 17 7H2V18Z" fill="#1356EB"/>
</svg>
