<svg width="48" height="52" viewBox="0 0 48 52" fill="none" xmlns="http://www.w3.org/2000/svg">
<g clip-path="url(#clip0_445_7813)">
<rect x="8" width="32" height="32" rx="16" fill="white"/>
<path d="M16.5 9.5H18.5V12.5H28.5V9.5H30.5V15.5H32.5V9.5C32.5 8.4 31.6 7.5 30.5 7.5H26.32C25.9 6.34 24.8 5.5 23.5 5.5C22.2 5.5 21.1 6.34 20.68 7.5H16.5C15.4 7.5 14.5 8.4 14.5 9.5V23.5C14.5 24.6 15.4 25.5 16.5 25.5H21.5V23.5H16.5V9.5ZM23.5 7.5C24.05 7.5 24.5 7.95 24.5 8.5C24.5 9.05 24.05 9.5 23.5 9.5C22.95 9.5 22.5 9.05 22.5 8.5C22.5 7.95 22.95 7.5 23.5 7.5Z" fill="#1356EB"/>
<path d="M29.51 17.5L28.09 18.91L29.67 20.49H23.5V22.49H29.67L28.09 24.08L29.51 25.49L33.5 21.49L29.51 17.5Z" fill="#1356EB"/>
</g>
<path d="M2.208 42.18H5.82C5.34 41.496 4.656 40.656 4.008 39.924C3.504 40.752 2.88 41.52 2.208 42.18ZM6.312 42.612V42.66C6.216 44.652 6.096 45.528 5.82 45.852C5.604 46.116 5.34 46.212 5.016 46.26C4.728 46.296 4.26 46.308 3.732 46.296C3.72 45.924 3.576 45.42 3.396 45.096C3.78 45.144 4.14 45.144 4.32 45.144C4.476 45.144 4.572 45.12 4.656 45.012C4.764 44.88 4.848 44.436 4.92 43.404H3.024V47.064C3.024 47.556 3.108 47.628 3.648 47.628H5.268C5.76 47.628 5.844 47.388 5.916 46.128C6.216 46.356 6.792 46.572 7.152 46.644C6.996 48.336 6.624 48.84 5.4 48.84H3.48C2.076 48.84 1.632 48.456 1.632 47.076V42.696C1.512 42.792 1.38 42.888 1.26 42.984C1.032 42.684 0.552 42.168 0.24 41.928C1.692 40.944 2.952 39.336 3.576 37.812L4.884 38.22C4.812 38.388 4.728 38.568 4.656 38.736C5.58 39.708 6.696 40.944 7.224 41.748L6.312 42.612ZM8.76 39.204V45.984H7.392V39.204H8.76ZM9.684 38.064H11.1V47.364C11.1 48.18 10.932 48.54 10.428 48.756C9.936 48.984 9.168 49.02 8.04 49.02C7.98 48.624 7.764 48.024 7.56 47.64C8.316 47.676 9.12 47.676 9.36 47.676C9.588 47.664 9.684 47.592 9.684 47.364V38.064ZM15.744 40.152H23.592V41.256H15.744V40.152ZM16.44 43.38H22.788V44.412H16.44V43.38ZM15.912 44.964H23.328V46.104H15.912V44.964ZM18.78 37.908H20.184V47.076H18.78V37.908ZM16.572 38.58H22.692V42.852H16.512V41.76H21.276V39.672H16.572V38.58ZM12.384 38.472H14.916V39.732H12.384V38.472ZM14.424 38.472H14.604L14.82 38.424L15.792 38.688C15.252 40.104 14.412 41.976 13.716 43.476L12.408 43.14C13.14 41.664 14.004 39.684 14.424 38.628V38.472ZM13.608 41.868H15.36V43.128H13.56L13.608 41.868ZM14.784 41.868H15.06L15.3 41.844L16.14 42.024C15.84 45.648 14.916 47.952 13.356 49.128C13.14 48.852 12.588 48.336 12.276 48.156C13.764 47.124 14.556 45.18 14.784 42.132V41.868ZM13.68 43.812C14.652 46.92 16.848 47.412 19.68 47.424C20.412 47.424 22.86 47.424 23.736 47.388C23.52 47.712 23.268 48.372 23.184 48.792H19.644C16.164 48.792 13.8 48.084 12.552 44.208L13.68 43.812ZM25.2 39.06H34.824V40.56H25.2V39.06ZM24.528 46.8H35.508V48.252H24.528V46.8ZM29.124 39.876H30.768V47.376H29.124V39.876ZM39.06 43.764H41.244V42.936H39.06V43.764ZM39.06 41.04V41.856H41.244V41.04H39.06ZM44.988 41.856V41.04H42.72V41.856H44.988ZM44.988 43.764V42.936H42.72V43.764H44.988ZM47.424 45.72V47.052H42.72V49.008H41.244V47.052H36.612V45.72H41.244V44.94H37.668V39.876H39.6C39.36 39.42 38.964 38.868 38.616 38.436L39.84 37.896C40.308 38.4 40.848 39.132 41.088 39.624L40.572 39.876H43.14C43.524 39.288 43.944 38.532 44.172 37.932L45.756 38.388C45.432 38.916 45.072 39.42 44.748 39.876H46.464V44.94H42.72V45.72H47.424Z" fill="white"/>
<defs>
<clipPath id="clip0_445_7813">
<rect x="8" width="32" height="32" rx="16" fill="white"/>
</clipPath>
</defs>
</svg>
