<svg width="48" height="40" viewBox="0 0 48 40" fill="none" xmlns="http://www.w3.org/2000/svg">
<g clip-path="url(#clip0_355_6932)">
<path d="M31 2H26.82C26.4 0.84 25.3 0 24 0C22.7 0 21.6 0.84 21.18 2H17C15.9 2 15 2.9 15 4V20C15 21.1 15.9 22 17 22H31C32.1 22 33 21.1 33 20V4C33 2.9 32.1 2 31 2ZM24 2C24.55 2 25 2.45 25 3C25 3.55 24.55 4 24 4C23.45 4 23 3.55 23 3C23 2.45 23.45 2 24 2ZM31 20H17V4H19V7H29V4H31V20Z" fill="#414141"/>
</g>
<path d="M1.248 27.276H10.8V28.212H1.248V27.276ZM0.612 35.148H11.4V36.048H0.612V35.148ZM5.46 27.744H6.468V35.52H5.46V27.744ZM14.688 32.052H17.52V30.768H14.688V32.052ZM14.688 28.788V30.048H17.52V28.788H14.688ZM21.396 30.048V28.788H18.42V30.048H21.396ZM21.396 32.052V30.768H18.42V32.052H21.396ZM23.328 33.948V34.776H18.42V36.912H17.52V34.776H12.684V33.948H17.52V32.808H13.812V28.032H16.02C15.756 27.552 15.288 26.868 14.856 26.376L15.6 26.016C16.104 26.556 16.656 27.288 16.896 27.78L16.404 28.032H19.296C19.716 27.456 20.208 26.616 20.496 26.016L21.444 26.34C21.096 26.904 20.664 27.528 20.292 28.032H22.296V32.808H18.42V33.948H23.328ZM27.24 35.868H33.588V36.564H27.24V35.868ZM29.532 28.356H30.408V29.688H29.532V28.356ZM24.972 29.292H35.112V31.548H34.224V30.012H25.836V31.548H24.972V29.292ZM27.192 30.756H33.348V33.168H27.192V32.472H32.46V31.44H27.192V30.756ZM27.228 33.996H34.116V36.948H33.228V34.704H27.228V33.996ZM26.712 30.756H27.576V36.972H26.712V30.756ZM25.956 26.844H29.832V27.588H25.956V26.844ZM30.636 26.844H35.484V27.588H30.636V26.844ZM26.184 25.872L27.036 26.088C26.592 27.144 25.884 28.188 25.188 28.872C25.02 28.74 24.66 28.488 24.444 28.38C25.164 27.756 25.812 26.808 26.184 25.872ZM30.912 25.872L31.764 26.076C31.332 27.12 30.576 28.092 29.82 28.716C29.64 28.584 29.268 28.368 29.04 28.26C29.832 27.684 30.528 26.796 30.912 25.872ZM26.628 27.408L27.408 27.204C27.684 27.624 27.996 28.212 28.116 28.584L27.3 28.824C27.192 28.452 26.904 27.852 26.628 27.408ZM31.716 27.42L32.508 27.18C32.88 27.6 33.312 28.188 33.492 28.584L32.676 28.848C32.508 28.464 32.1 27.852 31.716 27.42ZM41.7 29.532V31.08H46.164V29.532H41.7ZM41.7 27.264V28.788H46.164V27.264H41.7ZM40.884 26.484H47.028V31.86H40.884V26.484ZM40.728 33.264H47.196V34.092H40.728V33.264ZM39.804 35.748H47.592V36.564H39.804V35.748ZM36.54 26.736H40.284V27.588H36.54V26.736ZM36.672 30.204H40.116V31.056H36.672V30.204ZM36.42 34.8C37.392 34.536 38.832 34.068 40.224 33.6L40.38 34.464C39.072 34.908 37.704 35.364 36.636 35.724L36.42 34.8ZM38.04 27.072H38.904V34.512L38.04 34.68V27.072ZM43.536 26.856H44.328V31.476H44.388V36.12H43.476V31.476H43.536V26.856Z" fill="#414141"/>
<defs>
<clipPath id="clip0_355_6932">
<rect width="24" height="24" fill="white" transform="translate(12)"/>
</clipPath>
</defs>
</svg>
