<svg width="49" height="50" viewBox="0 0 49 50" fill="none" xmlns="http://www.w3.org/2000/svg">
<rect x="8.5" width="32" height="32" rx="16" fill="white"/>
<path d="M34.5 11.5348H25.5V13.5348H34.5V11.5348ZM34.5 19.5348H25.5V21.5348H34.5V19.5348ZM18.04 15.5348L14.5 11.9948L15.91 10.5848L18.03 12.7048L22.27 8.46484L23.68 9.87484L18.04 15.5348ZM18.04 23.5348L14.5 19.9948L15.91 18.5848L18.03 20.7048L22.27 16.4648L23.68 17.8748L18.04 23.5348Z" fill="#1356EB"/>
<path d="M4.34 38.816L3.356 39.812C2.984 39.284 2.132 38.456 1.496 37.88L2.408 37.016C3.056 37.544 3.92 38.3 4.34 38.816ZM3.764 45.176L4.796 44.384C4.892 44.768 5.108 45.332 5.264 45.62C3.08 47.312 2.696 47.648 2.492 47.936C2.372 47.6 2.024 46.988 1.796 46.736C2.048 46.556 2.396 46.148 2.396 45.596V41.888H0.932V40.52H3.764V45.176ZM6.8 45.356H9.908V44.672H6.8V45.356ZM9.908 43.148H6.8V43.76H9.908V43.148ZM11.264 42.104V46.676C11.264 47.3 11.144 47.636 10.7 47.828C10.28 48.032 9.692 48.032 8.864 48.032C8.804 47.684 8.636 47.168 8.468 46.82C8.96 46.856 9.536 46.844 9.692 46.844C9.848 46.844 9.908 46.796 9.908 46.652V46.304H6.8V48.056H5.48V42.104H11.264ZM9.044 40.628H12.08V41.648H4.664V40.628H7.628V40.112H5.348V39.152H7.628V38.672H5.024V37.652H7.628V36.836H9.044V37.652H11.72V38.672H9.044V39.152H11.348V40.112H9.044V40.628ZM14.732 36.836L16.076 37.16C15.536 39.332 14.636 41.588 13.436 43.016C13.328 42.668 12.968 41.852 12.74 41.492C13.652 40.364 14.336 38.612 14.732 36.836ZM13.976 40.172L15.308 38.852L15.344 38.876V48.068H13.976V40.172ZM16.88 42.344H19.448V43.52H16.88V42.344ZM16.88 44.552H19.604V45.728H16.88V44.552ZM19.724 41.996H22.748V43.16H19.724V41.996ZM16.736 37.268H19.652V41.42H16.736V40.244H18.416V38.456H16.736V37.268ZM20.024 37.268H23.54V41.384H20.024V40.172H22.208V38.48H20.024V37.268ZM16.208 37.268H17.528V48.056H16.208V37.268ZM22.448 41.996H22.688L22.928 41.972L23.732 42.2C23.168 45.428 21.668 47.18 19.352 48.116C19.196 47.804 18.896 47.312 18.644 47.072C20.648 46.388 22.028 44.732 22.448 42.2V41.996ZM20.876 43.088C21.404 44.876 22.532 46.376 24.248 47.024C23.972 47.276 23.6 47.768 23.42 48.092C21.548 47.264 20.432 45.536 19.796 43.328L20.876 43.088ZM33.476 41.888H31.232V42.764H33.476V41.888ZM31.232 44.828H33.476V43.952H31.232V44.828ZM27.464 44.828H29.744V43.952H27.464V44.828ZM29.744 41.888H27.464V42.764H29.744V41.888ZM31.232 39.644V40.652H34.928V46.556H33.476V46.064H31.232V48.02H29.744V46.064H27.464V46.616H26.084V40.652H29.744V39.644H31.232ZM31.544 37.976H35.612V40.22H34.112V39.332H26.804V40.22H25.388V37.976H29.828C29.72 37.676 29.588 37.364 29.468 37.1L30.956 36.692C31.16 37.088 31.424 37.628 31.544 37.976ZM41.852 40.484H44V41.864H41.852V40.484ZM41.108 36.944H42.5V46.76L41.108 47.012V36.944ZM39.98 46.496C41 46.352 42.512 46.064 43.964 45.788L44.096 47.06C42.812 47.36 41.444 47.66 40.364 47.888L39.98 46.496ZM44.348 36.92H45.752V46.016C45.752 46.592 45.788 46.688 46.016 46.688C46.112 46.688 46.52 46.688 46.64 46.688C46.868 46.688 46.904 46.28 46.952 44.816C47.264 45.068 47.816 45.332 48.2 45.428C48.08 47.252 47.768 47.96 46.76 47.96C46.556 47.96 45.944 47.96 45.74 47.96C44.636 47.96 44.348 47.492 44.348 46.004V36.92ZM47.132 39.56L48.116 40.628C47.3 41.24 46.316 41.936 45.56 42.368L44.804 41.456C45.524 41 46.532 40.184 47.132 39.56ZM36.74 42.848C37.7 42.632 39.128 42.248 40.484 41.864L40.676 43.16C39.44 43.544 38.12 43.928 37.064 44.228L36.74 42.848ZM36.932 39.092H40.604V40.412H36.932V39.092ZM38.204 36.824H39.524V46.556C39.524 47.228 39.404 47.6 39.032 47.816C38.672 48.044 38.156 48.092 37.376 48.092C37.34 47.732 37.172 47.144 37.004 46.748C37.436 46.772 37.856 46.772 38 46.76C38.144 46.76 38.204 46.724 38.204 46.556V36.824Z" fill="white"/>
</svg>
