<svg width="49" height="50" viewBox="0 0 49 50" fill="none" xmlns="http://www.w3.org/2000/svg">
<rect x="8.75" width="32" height="32" rx="16" fill="white"/>
<path d="M17.25 25.5C16.7 25.5 16.2292 25.3042 15.8375 24.9125C15.4458 24.5208 15.25 24.05 15.25 23.5V9.5C15.25 8.95 15.4458 8.47917 15.8375 8.0875C16.2292 7.69583 16.7 7.5 17.25 7.5H18.25V5.5H20.25V7.5H28.25V5.5H30.25V7.5H31.25C31.8 7.5 32.2708 7.69583 32.6625 8.0875C33.0542 8.47917 33.25 8.95 33.25 9.5V15.175C32.9333 15.025 32.6083 14.9 32.275 14.8C31.9417 14.7 31.6 14.625 31.25 14.575V13.5H17.25V23.5H23.55C23.6667 23.8667 23.8042 24.2167 23.9625 24.55C24.1208 24.8833 24.3083 25.2 24.525 25.5H17.25ZM30.25 26.5C28.8667 26.5 27.6875 26.0125 26.7125 25.0375C25.7375 24.0625 25.25 22.8833 25.25 21.5C25.25 20.1167 25.7375 18.9375 26.7125 17.9625C27.6875 16.9875 28.8667 16.5 30.25 16.5C31.6333 16.5 32.8125 16.9875 33.7875 17.9625C34.7625 18.9375 35.25 20.1167 35.25 21.5C35.25 22.8833 34.7625 24.0625 33.7875 25.0375C32.8125 26.0125 31.6333 26.5 30.25 26.5ZM31.925 23.875L32.625 23.175L30.75 21.3V18.5H29.75V21.7L31.925 23.875Z" fill="#1356EB"/>
<path d="M16.59 38.816L15.606 39.812C15.234 39.284 14.382 38.456 13.746 37.88L14.658 37.016C15.306 37.544 16.17 38.3 16.59 38.816ZM16.014 45.176L17.046 44.384C17.142 44.768 17.358 45.332 17.514 45.62C15.33 47.312 14.946 47.648 14.742 47.936C14.622 47.6 14.274 46.988 14.046 46.736C14.298 46.556 14.646 46.148 14.646 45.596V41.888H13.182V40.52H16.014V45.176ZM19.05 45.356H22.158V44.672H19.05V45.356ZM22.158 43.148H19.05V43.76H22.158V43.148ZM23.514 42.104V46.676C23.514 47.3 23.394 47.636 22.95 47.828C22.53 48.032 21.942 48.032 21.114 48.032C21.054 47.684 20.886 47.168 20.718 46.82C21.21 46.856 21.786 46.844 21.942 46.844C22.098 46.844 22.158 46.796 22.158 46.652V46.304H19.05V48.056H17.73V42.104H23.514ZM21.294 40.628H24.33V41.648H16.914V40.628H19.878V40.112H17.598V39.152H19.878V38.672H17.274V37.652H19.878V36.836H21.294V37.652H23.97V38.672H21.294V39.152H23.598V40.112H21.294V40.628ZM26.982 36.836L28.326 37.16C27.786 39.332 26.886 41.588 25.686 43.016C25.578 42.668 25.218 41.852 24.99 41.492C25.902 40.364 26.586 38.612 26.982 36.836ZM26.226 40.172L27.558 38.852L27.594 38.876V48.068H26.226V40.172ZM29.13 42.344H31.698V43.52H29.13V42.344ZM29.13 44.552H31.854V45.728H29.13V44.552ZM31.974 41.996H34.998V43.16H31.974V41.996ZM28.986 37.268H31.902V41.42H28.986V40.244H30.666V38.456H28.986V37.268ZM32.274 37.268H35.79V41.384H32.274V40.172H34.458V38.48H32.274V37.268ZM28.458 37.268H29.778V48.056H28.458V37.268ZM34.698 41.996H34.938L35.178 41.972L35.982 42.2C35.418 45.428 33.918 47.18 31.602 48.116C31.446 47.804 31.146 47.312 30.894 47.072C32.898 46.388 34.278 44.732 34.698 42.2V41.996ZM33.126 43.088C33.654 44.876 34.782 46.376 36.498 47.024C36.222 47.276 35.85 47.768 35.67 48.092C33.798 47.264 32.682 45.536 32.046 43.328L33.126 43.088Z" fill="white"/>
</svg>
