<svg width="49" height="50" viewBox="0 0 49 50" fill="none" xmlns="http://www.w3.org/2000/svg">
<rect x="8.25" width="32" height="32" rx="16" fill="white"/>
<path d="M19.25 20C19.5333 20 19.771 19.904 19.963 19.712C20.1543 19.5207 20.25 19.2833 20.25 19C20.25 18.7167 20.1543 18.479 19.963 18.287C19.771 18.0957 19.5333 18 19.25 18C18.9667 18 18.729 18.0957 18.537 18.287C18.3457 18.479 18.25 18.7167 18.25 19C18.25 19.2833 18.3457 19.5207 18.537 19.712C18.729 19.904 18.9667 20 19.25 20ZM19.25 17C19.5333 17 19.771 16.904 19.963 16.712C20.1543 16.5207 20.25 16.2833 20.25 16V13C20.25 12.7167 20.1543 12.479 19.963 12.287C19.771 12.0957 19.5333 12 19.25 12C18.9667 12 18.729 12.0957 18.537 12.287C18.3457 12.479 18.25 12.7167 18.25 13V16C18.25 16.2833 18.3457 16.5207 18.537 16.712C18.729 16.904 18.9667 17 19.25 17ZM23.25 19H29.25C29.5333 19 29.7707 18.904 29.962 18.712C30.154 18.5207 30.25 18.2833 30.25 18C30.25 17.7167 30.154 17.479 29.962 17.287C29.7707 17.0957 29.5333 17 29.25 17H23.25C22.9667 17 22.7293 17.0957 22.538 17.287C22.346 17.479 22.25 17.7167 22.25 18C22.25 18.2833 22.346 18.5207 22.538 18.712C22.7293 18.904 22.9667 19 23.25 19ZM23.25 15H29.25C29.5333 15 29.7707 14.904 29.962 14.712C30.154 14.5207 30.25 14.2833 30.25 14C30.25 13.7167 30.154 13.479 29.962 13.287C29.7707 13.0957 29.5333 13 29.25 13H23.25C22.9667 13 22.7293 13.0957 22.538 13.287C22.346 13.479 22.25 13.7167 22.25 14C22.25 14.2833 22.346 14.5207 22.538 14.712C22.7293 14.904 22.9667 15 23.25 15ZM16.25 24C15.7 24 15.2293 23.8043 14.838 23.413C14.446 23.021 14.25 22.55 14.25 22V10C14.25 9.45 14.446 8.97933 14.838 8.588C15.2293 8.196 15.7 8 16.25 8H32.25C32.8 8 33.271 8.196 33.663 8.588C34.0543 8.97933 34.25 9.45 34.25 10V22C34.25 22.55 34.0543 23.021 33.663 23.413C33.271 23.8043 32.8 24 32.25 24H16.25Z" fill="#1356EB"/>
<path d="M1.174 48.032V39.716H2.59V48.032H1.174ZM1.258 37.604L2.29 36.908C2.878 37.52 3.718 38.384 4.138 38.912L3.034 39.692C2.662 39.164 1.846 38.252 1.258 37.604ZM7.066 41.792H5.242V43.796H7.066V41.792ZM8.446 45.068H5.242V45.74H3.958V40.52H8.446V45.068ZM11.338 37.424V46.316C11.338 47.12 11.17 47.492 10.702 47.732C10.234 47.948 9.526 47.984 8.518 47.972C8.47 47.564 8.254 46.94 8.074 46.568C8.686 46.616 9.418 46.604 9.622 46.604C9.838 46.592 9.91 46.52 9.91 46.304V38.756H4.414V37.424H11.338ZM23.854 45.776L23.014 46.652C22.594 46.196 21.67 45.464 20.998 44.96L21.778 44.192C22.45 44.648 23.374 45.344 23.854 45.776ZM20.386 40.808H21.562C21.49 44.048 21.178 45.74 18.358 46.616C18.238 46.328 17.95 45.896 17.722 45.68C20.182 44.972 20.338 43.64 20.386 40.808ZM18.574 39.308H19.918C20.026 39.044 20.134 38.744 20.23 38.444H18.19V37.316H23.806V38.444H21.61C21.478 38.756 21.334 39.044 21.202 39.308H23.35V44.252H22.138V40.328H19.726V44.324H18.574V39.308ZM16.39 38.816V38.252H14.626V38.816H16.39ZM16.39 40.304V39.716H14.626V40.304H16.39ZM17.71 37.292V41.264H13.354V37.292H17.71ZM16.246 44.996V46.412C16.954 46.628 17.842 46.676 18.898 46.676C19.69 46.676 22.942 46.676 23.926 46.628C23.734 46.904 23.53 47.444 23.458 47.804H18.886C16.666 47.804 15.19 47.576 14.23 46.304C14.074 46.988 13.846 47.564 13.51 48.044C13.306 47.852 12.802 47.516 12.526 47.372C13.222 46.472 13.378 45.032 13.402 43.412L14.566 43.484C14.542 43.964 14.518 44.42 14.47 44.864C14.626 45.212 14.818 45.488 15.046 45.728V42.98H12.802V41.948H18.226V42.98H16.246V43.964H17.986V44.996H16.246ZM27.79 46.712H33.646V47.768H27.79V46.712ZM29.506 39.332H30.898V40.772H29.506V39.332ZM25.078 40.16H35.518V42.548H34.114V41.24H26.434V42.548H25.078V40.16ZM27.742 41.744H33.622V44.432H27.742V43.4H32.182V42.776H27.742V41.744ZM27.802 44.972H34.534V48.092H33.094V46.028H27.802V44.972ZM26.95 41.744H28.318V48.104H26.95V41.744ZM26.29 37.652H30.07V38.78H26.29V37.652ZM31.15 37.652H35.806V38.78H31.15V37.652ZM26.338 36.716L27.682 37.076C27.214 38.156 26.446 39.248 25.738 39.932C25.462 39.716 24.886 39.332 24.562 39.164C25.282 38.564 25.966 37.628 26.338 36.716ZM31.222 36.716L32.59 37.052C32.158 38.084 31.414 39.08 30.694 39.704C30.406 39.488 29.794 39.176 29.434 39.02C30.202 38.468 30.874 37.592 31.222 36.716ZM26.734 38.528L27.958 38.204C28.258 38.612 28.594 39.188 28.738 39.572L27.442 39.944C27.334 39.572 27.022 38.96 26.734 38.528ZM32.098 38.564L33.358 38.228C33.706 38.624 34.126 39.2 34.318 39.584L32.986 39.956C32.83 39.596 32.434 38.984 32.098 38.564ZM42.406 40.676V41.708H46.042V40.676H42.406ZM42.406 38.54V39.548H46.042V38.54H42.406ZM41.11 37.316H47.41V42.92H41.11V37.316ZM41.026 43.952H47.542V45.248H41.026V43.952ZM40.186 46.4H47.938V47.696H40.186V46.4ZM36.67 37.496H40.654V38.84H36.67V37.496ZM36.79 40.952H40.45V42.284H36.79V40.952ZM36.538 45.512C37.57 45.248 39.106 44.768 40.546 44.3L40.798 45.68C39.454 46.136 38.014 46.604 36.862 46.976L36.538 45.512ZM38.002 38.024H39.37V45.404L38.002 45.62V38.024ZM43.642 37.832H44.854V42.356H44.986V47.012H43.51V42.356H43.642V37.832Z" fill="white"/>
</svg>
