<svg width="32" height="32" viewBox="0 0 32 32" fill="none" xmlns="http://www.w3.org/2000/svg">
<path d="M18.6667 2.66699H8.00004C7.2928 2.66699 6.61452 2.94794 6.11442 3.44804C5.61433 3.94814 5.33337 4.62641 5.33337 5.33366V26.667C5.33337 27.3742 5.61433 28.0525 6.11442 28.5526C6.61452 29.0527 7.2928 29.3337 8.00004 29.3337H24C24.7073 29.3337 25.3856 29.0527 25.8857 28.5526C26.3858 28.0525 26.6667 27.3742 26.6667 26.667V10.667L18.6667 2.66699Z" stroke="#1356EB" stroke-width="2" stroke-linecap="round" stroke-linejoin="round"/>
<path d="M18.6666 2.66699V10.667H26.6666" stroke="#1356EB" stroke-width="2" stroke-linecap="round" stroke-linejoin="round"/>
<path d="M21.3333 17.333H10.6666" stroke="#1356EB" stroke-width="2" stroke-linecap="round" stroke-linejoin="round"/>
<path d="M21.3333 22.667H10.6666" stroke="#1356EB" stroke-width="2" stroke-linecap="round" stroke-linejoin="round"/>
<path d="M13.3333 12H12H10.6666" stroke="#1356EB" stroke-width="2" stroke-linecap="round" stroke-linejoin="round"/>
</svg>
