<svg width="19" height="17" viewBox="0 0 19 17" fill="none" xmlns="http://www.w3.org/2000/svg">
<path d="M0 17V2C0 1.45 0.195667 0.979333 0.587 0.588C0.979 0.196 1.45 0 2 0H14C14.55 0 15.021 0.196 15.413 0.588C15.8043 0.979333 16 1.45 16 2V7.075C15.8333 7.04167 15.671 7.02067 15.513 7.012C15.3543 7.004 15.1833 7 15 7C14.8167 7 14.646 7.004 14.488 7.012C14.3293 7.02067 14.1667 7.04167 14 7.075V2H2V12.175L2.175 12H9.075C9.04167 12.1667 9.02067 12.3293 9.012 12.488C9.004 12.646 9 12.8167 9 13C9 13.1833 9.004 13.354 9.012 13.512C9.02067 13.6707 9.04167 13.8333 9.075 14H3L0 17ZM4 6V4H12V6H4ZM4 10V8H9V10H4ZM14 17V14H11V12H14V9H16V12H19V14H16V17H14Z" fill="#252525"/>
</svg>
