<svg width="56" height="76" viewBox="0 0 56 76" fill="none" xmlns="http://www.w3.org/2000/svg">
<path d="M37 20.25C37 20.8467 36.7629 21.419 36.341 21.841C35.919 22.2629 35.3467 22.5 34.75 22.5H22C21.4033 22.5 20.831 22.2629 20.409 21.841C19.9871 21.419 19.75 20.8467 19.75 20.25C19.75 19.6533 19.9871 19.081 20.409 18.659C20.831 18.2371 21.4033 18 22 18H34.75C35.3467 18 35.919 18.2371 36.341 18.659C36.7629 19.081 37 19.6533 37 20.25ZM34.75 25.5H22C21.4033 25.5 20.831 25.7371 20.409 26.159C19.9871 26.581 19.75 27.1533 19.75 27.75C19.75 28.3467 19.9871 28.919 20.409 29.341C20.831 29.7629 21.4033 30 22 30H34.75C35.3467 30 35.919 29.7629 36.341 29.341C36.7629 28.919 37 28.3467 37 27.75C37 27.1533 36.7629 26.581 36.341 26.159C35.919 25.7371 35.3467 25.5 34.75 25.5ZM48.25 23.25C48.2445 28.42 46.1883 33.3768 42.5326 37.0326C38.8768 40.6883 33.92 42.7445 28.75 42.75H13C12.0054 42.75 11.0516 42.3549 10.3483 41.6516C9.64509 40.9484 9.25 39.9946 9.25 39V23.25C9.25 18.0783 11.3045 13.1184 14.9614 9.46142C18.6184 5.80446 23.5783 3.75 28.75 3.75C33.9217 3.75 38.8816 5.80446 42.5386 9.46142C46.1955 13.1184 48.25 18.0783 48.25 23.25ZM43.75 23.25C43.75 19.2718 42.1696 15.4564 39.3566 12.6434C36.5436 9.83035 32.7282 8.25 28.75 8.25C24.7718 8.25 20.9564 9.83035 18.1434 12.6434C15.3304 15.4564 13.75 19.2718 13.75 23.25V38.25H28.75C32.7269 38.2455 36.5396 36.6637 39.3517 33.8517C42.1637 31.0396 43.7455 27.2269 43.75 23.25Z" fill="url(#paint0_linear_776_11371)"/>
<path d="M1.344 74.078V64.432H2.366V74.078H1.344ZM1.498 61.968L2.254 61.478C2.954 62.178 3.892 63.144 4.34 63.732L3.57 64.306C3.122 63.704 2.198 62.696 1.498 61.968ZM8.4 66.462H5.474V69.682H8.4V66.462ZM9.408 70.634H5.474V71.53H4.522V65.51H9.408V70.634ZM12.656 62.08V72.622C12.656 73.294 12.502 73.602 12.068 73.784C11.62 73.952 10.878 73.98 9.744 73.966C9.702 73.672 9.534 73.21 9.394 72.916C10.234 72.958 11.074 72.944 11.298 72.944C11.55 72.93 11.634 72.846 11.634 72.608V63.046H4.984V62.08H12.656ZM21.546 64.124H23.086C23.24 63.732 23.394 63.228 23.506 62.78H20.986V61.926H27.328V62.78H24.57C24.374 63.256 24.192 63.746 24.038 64.124H26.656V69.92H25.732V64.908H22.442V69.962H21.546V64.124ZM27.3 71.852L26.67 72.496C26.152 71.908 25.06 70.998 24.192 70.368L24.808 69.822C25.648 70.41 26.754 71.278 27.3 71.852ZM23.702 65.594H24.598C24.486 69.514 24.094 71.53 20.916 72.58C20.832 72.37 20.594 72.048 20.412 71.894C23.338 70.97 23.618 69.206 23.702 65.594ZM19.334 63.69V62.64H16.492V63.69H19.334ZM19.334 65.468V64.418H16.492V65.468H19.334ZM20.314 61.87V66.238H15.554V61.87H20.314ZM18.452 70.368V72.342C19.53 72.804 20.93 72.888 22.61 72.902C23.226 72.902 26.628 72.902 27.44 72.874C27.286 73.098 27.104 73.49 27.048 73.77H22.596C19.628 73.77 17.57 73.434 16.338 71.586C16.128 72.566 15.792 73.378 15.274 74.05C15.12 73.91 14.742 73.644 14.532 73.518C15.442 72.454 15.708 70.774 15.792 68.758L16.674 68.842C16.646 69.444 16.604 70.004 16.52 70.522C16.8 71.068 17.15 71.502 17.556 71.824V68.086H14.728V67.274H21.014V68.086H18.452V69.57H20.762V70.368H18.452ZM32.298 63.62L31.542 64.32C31.15 63.746 30.31 62.836 29.638 62.192L30.338 61.59C31.038 62.206 31.906 63.046 32.298 63.62ZM31.612 71.362L33.068 70.326C33.138 70.592 33.32 70.998 33.404 71.18C31.052 72.944 30.674 73.238 30.478 73.518C30.38 73.266 30.114 72.832 29.932 72.622C30.184 72.468 30.604 72.048 30.604 71.432V66.658H28.644V65.65H31.612V71.362ZM37.38 66.56H34.986V68.058H37.38V66.56ZM34.986 70.41H37.38V68.898H34.986V70.41ZM38.318 71.264H34.986V72.118H34.02V65.706H38.318V71.264ZM35.392 63.368H41.132C41.132 63.368 41.132 63.774 41.118 63.928C40.894 70.522 40.698 72.734 40.152 73.42C39.844 73.826 39.55 73.952 39.06 73.994C38.612 74.05 37.828 74.036 37.072 73.994C37.044 73.686 36.918 73.266 36.736 72.972C37.576 73.042 38.332 73.056 38.668 73.056C38.92 73.056 39.074 73.014 39.228 72.818C39.676 72.328 39.914 70.144 40.096 64.334H34.888C34.398 65.216 33.838 66 33.278 66.616C33.082 66.434 32.648 66.098 32.382 65.93C33.516 64.81 34.496 63.046 35.098 61.282L36.148 61.562C35.924 62.178 35.672 62.78 35.392 63.368ZM43.344 74.078V64.432H44.366V74.078H43.344ZM43.498 61.968L44.254 61.478C44.954 62.178 45.892 63.144 46.34 63.732L45.57 64.306C45.122 63.704 44.198 62.696 43.498 61.968ZM50.4 66.462H47.474V69.682H50.4V66.462ZM51.408 70.634H47.474V71.53H46.522V65.51H51.408V70.634ZM54.656 62.08V72.622C54.656 73.294 54.502 73.602 54.068 73.784C53.62 73.952 52.878 73.98 51.744 73.966C51.702 73.672 51.534 73.21 51.394 72.916C52.234 72.958 53.074 72.944 53.298 72.944C53.55 72.93 53.634 72.846 53.634 72.608V63.046H46.984V62.08H54.656Z" fill="#1356EB"/>
<defs>
<linearGradient id="paint0_linear_776_11371" x1="21" y1="4" x2="48" y2="43" gradientUnits="userSpaceOnUse">
<stop stop-color="#1356EB"/>
<stop offset="1" stop-color="#638FF0"/>
</linearGradient>
</defs>
</svg>
