<svg width="19" height="19" viewBox="0 0 19 19" fill="none" xmlns="http://www.w3.org/2000/svg">
<path d="M12.2655 13.3279C11.0378 14.3221 9.47414 14.9176 7.77135 14.9176C3.82453 14.9176 0.625 11.7181 0.625 7.77132C0.625 3.82451 3.82453 0.625 7.77135 0.625C11.7182 0.625 14.9177 3.82451 14.9177 7.77132C14.9177 9.47412 14.3221 11.0378 13.328 12.2655L18.625 17.5625L17.5626 18.625L12.2655 13.3279ZM13.4152 7.77132C13.4152 4.65434 10.8884 2.12752 7.77135 2.12752C4.65435 2.12752 2.12752 4.65434 2.12752 7.77132C2.12752 10.8883 4.65435 13.4151 7.77135 13.4151C10.8884 13.4151 13.4152 10.8883 13.4152 7.77132Z" fill="#B6B6B6"/>
</svg>
