<svg width="56" height="76" viewBox="0 0 56 76" fill="none" xmlns="http://www.w3.org/2000/svg">
<g clip-path="url(#clip0_776_11362)">
<path d="M14 10H18V16H38V10H42V22H46V10C46 7.8 44.2 6 42 6H33.64C32.8 3.68 30.6 2 28 2C25.4 2 23.2 3.68 22.36 6H14C11.8 6 10 7.8 10 10V38C10 40.2 11.8 42 14 42H24V38H14V10ZM28 6C29.1 6 30 6.9 30 8C30 9.1 29.1 10 28 10C26.9 10 26 9.1 26 8C26 6.9 26.9 6 28 6Z" fill="url(#paint0_linear_776_11362)"/>
<path d="M40.02 26L37.18 28.82L40.34 31.98H28V35.98H40.34L37.18 39.16L40.02 41.98L48 33.98L40.02 26Z" fill="url(#paint1_linear_776_11362)"/>
</g>
<path d="M7.84 63.844H13.44V64.838H7.84V63.844ZM0.588 63.97H6.734V64.964H0.588V63.97ZM8.274 61.24L9.324 61.408C8.806 64.026 7.924 66.434 6.72 68.002C6.538 67.834 6.09 67.484 5.824 67.33C7.028 65.902 7.826 63.62 8.274 61.24ZM11.41 64.39L12.446 64.516C11.662 69.486 9.982 72.398 6.118 74.134C6.006 73.896 5.698 73.42 5.516 73.21C9.198 71.726 10.738 68.982 11.41 64.39ZM8.33 64.726C9.044 68.674 10.57 71.908 13.538 73.238C13.286 73.448 12.964 73.854 12.81 74.134C9.716 72.594 8.19 69.234 7.378 64.894L8.33 64.726ZM3.15 61.24H4.214V68.03H3.15V61.24ZM1.176 67.526H2.17V73.518H1.176V67.526ZM1.764 67.526H6.174V72.538H1.764V71.558H5.18V68.52H1.764V67.526ZM20.706 68.38V69.304H25.466V68.38H20.706ZM20.706 66.784V67.694H25.466V66.784H20.706ZM19.754 66.084H26.446V70.018H19.754V66.084ZM22.554 61.24H23.562V62.878H22.554V61.24ZM22.554 69.85H23.562V74.12H22.554V69.85ZM19.362 62.276H27.062V63.13H19.362V62.276ZM18.816 64.432H27.37V65.3H18.816V64.432ZM18.69 71.054H27.426V71.922H18.69V71.054ZM24.64 62.948L25.648 63.172C25.368 63.704 25.102 64.264 24.864 64.642L23.996 64.446C24.206 64.026 24.5 63.382 24.64 62.948ZM20.566 63.172L21.434 62.99C21.686 63.438 21.896 64.054 21.98 64.446L21.056 64.684C21 64.264 20.79 63.648 20.566 63.172ZM15.12 61.856H18.424V62.808H16.072V74.134H15.12V61.856ZM18.102 61.856H18.284L18.452 61.814L19.124 62.22C18.718 63.368 18.2 64.81 17.724 65.93C18.76 67.092 18.984 68.072 18.984 68.94C18.984 69.696 18.83 70.284 18.438 70.564C18.242 70.69 17.99 70.774 17.71 70.816C17.43 70.844 17.08 70.844 16.758 70.83C16.744 70.578 16.66 70.172 16.506 69.906C16.828 69.934 17.094 69.948 17.318 69.92C17.486 69.92 17.64 69.878 17.752 69.794C17.976 69.64 18.046 69.262 18.046 68.842C18.046 68.086 17.794 67.134 16.786 66.042C17.29 64.768 17.808 63.102 18.102 62.136V61.856ZM33.278 67.344L33.418 68.338L31.738 68.842V72.776C31.738 73.42 31.57 73.714 31.178 73.882C30.772 74.064 30.114 74.078 29.008 74.078C28.98 73.798 28.826 73.364 28.672 73.084C29.456 73.112 30.17 73.098 30.366 73.084C30.604 73.084 30.702 73.014 30.702 72.776V69.15C30.016 69.346 29.372 69.542 28.798 69.696L28.518 68.646C29.12 68.506 29.876 68.31 30.702 68.072V65.118H28.714V64.096H30.702V61.296H31.738V64.096H33.306V65.118H31.738V67.778L33.278 67.344ZM39.704 67.47H36.358C36.82 68.604 37.436 69.682 38.206 70.62C38.892 69.668 39.396 68.59 39.704 67.47ZM40.264 66.49L40.936 66.714C40.572 68.436 39.886 70.046 38.892 71.39C39.648 72.146 40.502 72.762 41.44 73.154C41.188 73.364 40.866 73.756 40.712 74.036C39.788 73.588 38.962 72.944 38.22 72.174C37.52 72.944 36.694 73.588 35.742 74.106C35.588 73.854 35.294 73.532 35.042 73.336C36.008 72.846 36.848 72.188 37.562 71.418C36.638 70.27 35.91 68.94 35.378 67.47H34.958V74.05H33.936V61.758H40.502C40.502 61.758 40.502 62.052 40.488 62.206C40.404 64.166 40.278 64.964 39.984 65.272C39.718 65.524 39.424 65.608 38.962 65.636C38.514 65.664 37.632 65.65 36.708 65.608C36.694 65.328 36.582 64.978 36.414 64.726C37.338 64.81 38.248 64.81 38.528 64.81C38.822 64.81 38.99 64.796 39.088 64.698C39.27 64.53 39.354 63.984 39.41 62.724H34.958V66.532H40.082L40.264 66.49ZM51.758 67.61L52.57 67.932C51.716 68.828 50.274 69.556 48.944 69.99C48.804 69.794 48.552 69.528 48.342 69.374C49.602 68.996 51.016 68.338 51.758 67.61ZM53.102 68.954L53.9 69.29C52.836 70.452 50.96 71.334 49.084 71.838C48.944 71.642 48.734 71.334 48.538 71.152C50.316 70.746 52.15 69.948 53.102 68.954ZM54.418 70.48L55.314 70.872C53.928 72.538 51.282 73.546 48.314 74.064C48.216 73.812 47.978 73.448 47.768 73.224C50.582 72.818 53.158 71.922 54.418 70.48ZM49.896 61.24L50.876 61.478C50.19 63.144 49.112 64.726 47.978 65.762C47.81 65.594 47.418 65.272 47.18 65.132C48.3 64.194 49.322 62.738 49.896 61.24ZM49.588 62.766H55.286V63.648H49.056L49.588 62.766ZM53.368 62.962L54.362 63.2C53.228 65.86 50.82 67.372 47.922 68.268C47.796 68.058 47.488 67.638 47.292 67.442C50.12 66.714 52.416 65.342 53.368 62.962ZM49.49 63.312C50.344 64.992 52.458 66.686 55.734 67.302C55.538 67.498 55.286 67.89 55.16 68.142C51.87 67.4 49.77 65.566 48.846 63.83L49.49 63.312ZM46.34 62.906H47.264V71.796H46.34V62.906ZM45.248 61.324L46.228 61.604C45.43 64.026 44.184 66.49 42.784 68.114C42.7 67.876 42.42 67.316 42.238 67.05C43.456 65.65 44.576 63.494 45.248 61.324ZM44.128 64.754L45.108 63.788L45.136 63.816V74.12H44.128V64.754Z" fill="#1356EB"/>
<defs>
<linearGradient id="paint0_linear_776_11362" x1="10.9474" y1="2.5" x2="46.6482" y2="41.0855" gradientUnits="userSpaceOnUse">
<stop stop-color="#1356EB"/>
<stop offset="1" stop-color="#638FF0"/>
</linearGradient>
<linearGradient id="paint1_linear_776_11362" x1="28.5263" y1="26.1997" x2="41.7213" y2="46.0317" gradientUnits="userSpaceOnUse">
<stop stop-color="#1356EB"/>
<stop offset="1" stop-color="#638FF0"/>
</linearGradient>
<clipPath id="clip0_776_11362">
<rect width="48" height="48" fill="white" transform="translate(4)"/>
</clipPath>
</defs>
</svg>
