<svg width="48" height="40" viewBox="0 0 48 40" fill="none" xmlns="http://www.w3.org/2000/svg">
<path d="M33.2588 6.46886C33.2133 6.35642 33.1412 6.25669 33.0487 6.17822C32.9562 6.09975 32.8461 6.04489 32.7277 6.01834C32.6093 5.99179 32.4863 5.99435 32.3692 6.02579C32.252 6.05723 32.1442 6.11662 32.0551 6.19886L28.2769 9.68543L26.6616 9.33855L26.3147 7.72324L29.8013 3.94511C29.8836 3.85595 29.9429 3.74817 29.9744 3.63101C30.0058 3.51386 30.0084 3.39083 29.9818 3.27247C29.9553 3.15411 29.9004 3.04395 29.822 2.95145C29.7435 2.85895 29.6438 2.78686 29.5313 2.74136C28.5066 2.32683 27.3957 2.17032 26.2963 2.28557C25.1969 2.40082 24.1426 2.78431 23.2261 3.40235C22.3096 4.02039 21.5589 4.85405 21.04 5.8301C20.5211 6.80614 20.2498 7.8947 20.2501 9.00011C20.2488 9.93356 20.4403 10.8572 20.8126 11.7132L15.1679 16.5939C15.1538 16.6051 15.1407 16.6182 15.1276 16.6304C14.5649 17.1931 14.2488 17.9562 14.2488 18.752C14.2488 19.146 14.3264 19.5362 14.4772 19.9002C14.6279 20.2642 14.849 20.5949 15.1276 20.8736C15.4062 21.1522 15.7369 21.3732 16.1009 21.5239C16.465 21.6747 16.8551 21.7523 17.2491 21.7523C18.0449 21.7523 18.808 21.4362 19.3707 20.8736C19.3829 20.8614 19.396 20.8473 19.4072 20.8342L24.2869 15.1876C25.3148 15.6388 26.439 15.8266 27.5578 15.7338C28.6765 15.641 29.7545 15.2707 30.694 14.6564C31.6336 14.0421 32.4051 13.2031 32.9387 12.2155C33.4723 11.2278 33.7512 10.1227 33.7501 9.00011C33.7515 8.13254 33.5847 7.27291 33.2588 6.46886ZM27.0001 14.2501C26.1123 14.2489 25.2393 14.0231 24.4622 13.5939C24.3117 13.5107 24.1372 13.4818 23.9678 13.512C23.7985 13.5422 23.6447 13.6297 23.5322 13.7598L18.2916 19.8292C18.008 20.0986 17.6304 20.2466 17.2393 20.2416C16.8481 20.2366 16.4744 20.079 16.1978 19.8024C15.9212 19.5258 15.7636 19.1521 15.7586 18.7609C15.7536 18.3698 15.9016 17.9921 16.171 17.7086L22.2357 12.4689C22.366 12.3563 22.4536 12.2024 22.4839 12.0328C22.5141 11.8633 22.485 11.6886 22.4016 11.5379C21.9235 10.6732 21.6992 9.69114 21.7543 8.7046C21.8095 7.71805 22.1419 6.7671 22.7134 5.96107C23.2849 5.15503 24.0723 4.52664 24.985 4.14813C25.8977 3.76962 26.8987 3.65635 27.8729 3.82136L24.9479 6.99105C24.8665 7.07934 24.8075 7.18588 24.7758 7.30171C24.7442 7.41753 24.7408 7.53927 24.766 7.65668L25.2966 10.1251C25.327 10.2663 25.3974 10.3957 25.4995 10.4978C25.6017 10.5999 25.7311 10.6704 25.8722 10.7007L28.3426 11.2314C28.46 11.2565 28.5817 11.2532 28.6975 11.2215C28.8134 11.1899 28.9199 11.1309 29.0082 11.0495L32.1779 8.12449C32.3042 8.87731 32.2651 9.64862 32.0632 10.3848C31.8612 11.1209 31.5014 11.8043 31.0086 12.3873C30.5158 12.9702 29.9019 13.4389 29.2097 13.7606C28.5174 14.0823 27.7634 14.2493 27.0001 14.2501Z" fill="#414141"/>
<path d="M6.72 28.14H11.532V28.992H6.72V28.14ZM0.504 28.26H5.772V29.1H0.504V28.26ZM7.104 25.92L8.004 26.064C7.86 26.808 7.676 27.528 7.452 28.224C7.236 28.912 6.988 29.552 6.708 30.144C6.428 30.736 6.116 31.256 5.772 31.704C5.716 31.656 5.64 31.596 5.544 31.524C5.456 31.452 5.36 31.38 5.256 31.308C5.16 31.236 5.076 31.176 5.004 31.128C5.348 30.72 5.652 30.24 5.916 29.688C6.188 29.136 6.42 28.54 6.612 27.9C6.812 27.26 6.976 26.6 7.104 25.92ZM9.78 28.62L10.68 28.728C10.456 30.144 10.128 31.38 9.696 32.436C9.272 33.484 8.7 34.38 7.98 35.124C7.268 35.86 6.356 36.476 5.244 36.972C5.22 36.9 5.176 36.812 5.112 36.708C5.048 36.612 4.98 36.512 4.908 36.408C4.844 36.312 4.784 36.232 4.728 36.168C5.784 35.744 6.648 35.196 7.32 34.524C8 33.844 8.532 33.02 8.916 32.052C9.308 31.076 9.596 29.932 9.78 28.62ZM7.14 28.908C7.348 30.028 7.636 31.072 8.004 32.04C8.38 33 8.864 33.84 9.456 34.56C10.048 35.272 10.768 35.82 11.616 36.204C11.544 36.26 11.468 36.332 11.388 36.42C11.308 36.508 11.232 36.6 11.16 36.696C11.088 36.792 11.028 36.88 10.98 36.96C10.1 36.52 9.356 35.916 8.748 35.148C8.14 34.38 7.644 33.48 7.26 32.448C6.876 31.416 6.568 30.284 6.336 29.052L7.14 28.908ZM2.712 25.92H3.612V31.728H2.712V25.92ZM1.02 31.308H1.86V36.432H1.02V31.308ZM1.512 31.308H5.304V35.604H1.512V34.764H4.44V32.148H1.512V31.308ZM17.748 32.04V32.82H21.828V32.04H17.748ZM17.748 30.672V31.452H21.828V30.672H17.748ZM16.932 30.06H22.68V33.432H16.932V30.06ZM19.332 25.92H20.208V27.324H19.332V25.92ZM19.332 33.288H20.208V36.96H19.332V33.288ZM16.596 26.808H23.208V27.54H16.596V26.808ZM16.14 28.656H23.46V29.388H16.14V28.656ZM16.032 34.332H23.52V35.076H16.032V34.332ZM21.12 27.384L21.984 27.576C21.864 27.8 21.748 28.024 21.636 28.248C21.524 28.472 21.416 28.668 21.312 28.836L20.58 28.668C20.668 28.484 20.764 28.272 20.868 28.032C20.98 27.784 21.064 27.568 21.12 27.384ZM17.628 27.576L18.372 27.408C18.484 27.608 18.584 27.828 18.672 28.068C18.76 28.3 18.816 28.5 18.84 28.668L18.06 28.86C18.028 28.684 17.972 28.476 17.892 28.236C17.82 27.996 17.732 27.776 17.628 27.576ZM12.972 26.436H15.792V27.252H13.776V36.96H12.972V26.436ZM15.528 26.436H15.684L15.816 26.4L16.404 26.748C16.284 27.076 16.156 27.428 16.02 27.804C15.892 28.172 15.756 28.54 15.612 28.908C15.476 29.268 15.34 29.608 15.204 29.928C15.644 30.424 15.932 30.888 16.068 31.32C16.212 31.744 16.284 32.144 16.284 32.52C16.284 32.84 16.244 33.12 16.164 33.36C16.092 33.6 15.972 33.78 15.804 33.9C15.724 33.956 15.628 34.004 15.516 34.044C15.412 34.076 15.3 34.1 15.18 34.116C14.932 34.14 14.664 34.148 14.376 34.14C14.368 34.028 14.344 33.896 14.304 33.744C14.272 33.592 14.22 33.46 14.148 33.348C14.284 33.356 14.412 33.36 14.532 33.36C14.652 33.36 14.756 33.36 14.844 33.36C15.004 33.352 15.132 33.316 15.228 33.252C15.324 33.18 15.388 33.072 15.42 32.928C15.46 32.776 15.48 32.612 15.48 32.436C15.48 32.1 15.404 31.736 15.252 31.344C15.108 30.944 14.82 30.508 14.388 30.036C14.5 29.764 14.608 29.476 14.712 29.172C14.824 28.86 14.928 28.556 15.024 28.26C15.128 27.956 15.22 27.668 15.3 27.396C15.388 27.124 15.464 26.888 15.528 26.688V26.436ZM28.524 31.152L28.644 32.004L27.204 32.436V35.808C27.204 36.36 27.06 36.612 26.724 36.756C26.376 36.912 25.812 36.924 24.864 36.924C24.84 36.684 24.708 36.312 24.576 36.072C25.248 36.096 25.86 36.084 26.028 36.072C26.232 36.072 26.316 36.012 26.316 35.808V32.7C25.728 32.868 25.176 33.036 24.684 33.168L24.444 32.268C24.96 32.148 25.608 31.98 26.316 31.776V29.244H24.612V28.368H26.316V25.968H27.204V28.368H28.548V29.244H27.204V31.524L28.524 31.152ZM34.032 31.26H31.164C31.56 32.232 32.088 33.156 32.748 33.96C33.336 33.144 33.768 32.22 34.032 31.26ZM34.512 30.42L35.088 30.612C34.776 32.088 34.188 33.468 33.336 34.62C33.984 35.268 34.716 35.796 35.52 36.132C35.304 36.312 35.028 36.648 34.896 36.888C34.104 36.504 33.396 35.952 32.76 35.292C32.16 35.952 31.452 36.504 30.636 36.948C30.504 36.732 30.252 36.456 30.036 36.288C30.864 35.868 31.584 35.304 32.196 34.644C31.404 33.66 30.78 32.52 30.324 31.26H29.964V36.9H29.088V26.364H34.716C34.716 26.364 34.716 26.616 34.704 26.748C34.632 28.428 34.524 29.112 34.272 29.376C34.044 29.592 33.792 29.664 33.396 29.688C33.012 29.712 32.256 29.7 31.464 29.664C31.452 29.424 31.356 29.124 31.212 28.908C32.004 28.98 32.784 28.98 33.024 28.98C33.276 28.98 33.42 28.968 33.504 28.884C33.66 28.74 33.732 28.272 33.78 27.192H29.964V30.456H34.356L34.512 30.42ZM44.376 31.368L45.06 31.656C44.82 31.904 44.528 32.14 44.184 32.364C43.848 32.588 43.488 32.788 43.104 32.964C42.72 33.14 42.336 33.292 41.952 33.42C41.896 33.332 41.816 33.24 41.712 33.144C41.616 33.04 41.528 32.952 41.448 32.88C41.808 32.768 42.172 32.636 42.54 32.484C42.908 32.332 43.252 32.16 43.572 31.968C43.892 31.776 44.16 31.576 44.376 31.368ZM45.528 32.532L46.2 32.808C45.896 33.144 45.524 33.452 45.084 33.732C44.652 34.004 44.176 34.248 43.656 34.464C43.144 34.672 42.616 34.852 42.072 35.004C42.024 34.916 41.956 34.816 41.868 34.704C41.78 34.584 41.692 34.484 41.604 34.404C42.116 34.284 42.62 34.136 43.116 33.96C43.612 33.776 44.068 33.564 44.484 33.324C44.908 33.076 45.256 32.812 45.528 32.532ZM46.644 33.84L47.424 34.176C47.032 34.648 46.528 35.064 45.912 35.424C45.296 35.776 44.604 36.072 43.836 36.312C43.076 36.56 42.272 36.76 41.424 36.912C41.376 36.808 41.308 36.684 41.22 36.54C41.132 36.396 41.044 36.276 40.956 36.18C41.764 36.06 42.532 35.896 43.26 35.688C43.988 35.48 44.644 35.224 45.228 34.92C45.82 34.608 46.292 34.248 46.644 33.84ZM42.78 25.908L43.608 26.124C43.32 26.836 42.956 27.516 42.516 28.164C42.076 28.804 41.616 29.344 41.136 29.784C41.088 29.736 41.02 29.68 40.932 29.616C40.852 29.544 40.768 29.476 40.68 29.412C40.592 29.34 40.512 29.288 40.44 29.256C40.928 28.848 41.376 28.352 41.784 27.768C42.2 27.176 42.532 26.556 42.78 25.908ZM42.516 27.228H47.4V27.984H42.06L42.516 27.228ZM45.756 27.396L46.608 27.588C46.28 28.348 45.84 29.008 45.288 29.568C44.744 30.12 44.112 30.588 43.392 30.972C42.68 31.356 41.908 31.68 41.076 31.944C41.044 31.872 40.996 31.792 40.932 31.704C40.868 31.616 40.8 31.528 40.728 31.44C40.656 31.352 40.596 31.28 40.548 31.224C41.356 31.016 42.1 30.744 42.78 30.408C43.468 30.064 44.064 29.644 44.568 29.148C45.08 28.652 45.476 28.068 45.756 27.396ZM42.432 27.696C42.68 28.176 43.04 28.644 43.512 29.1C43.992 29.556 44.588 29.96 45.3 30.312C46.02 30.664 46.848 30.928 47.784 31.104C47.728 31.16 47.668 31.232 47.604 31.32C47.54 31.408 47.48 31.496 47.424 31.584C47.368 31.672 47.32 31.756 47.28 31.836C46.344 31.62 45.52 31.316 44.808 30.924C44.096 30.532 43.496 30.096 43.008 29.616C42.52 29.128 42.14 28.636 41.868 28.14L42.432 27.696ZM39.72 27.348H40.524V34.968H39.72V27.348ZM38.796 25.992L39.624 26.22C39.4 26.916 39.132 27.604 38.82 28.284C38.516 28.964 38.18 29.604 37.812 30.204C37.452 30.804 37.076 31.34 36.684 31.812C36.66 31.74 36.62 31.648 36.564 31.536C36.508 31.416 36.448 31.3 36.384 31.188C36.32 31.068 36.264 30.968 36.216 30.888C36.56 30.488 36.892 30.028 37.212 29.508C37.54 28.98 37.836 28.416 38.1 27.816C38.372 27.216 38.604 26.608 38.796 25.992ZM37.836 28.92L38.664 28.092L38.688 28.116V36.96H37.836V28.92Z" fill="#414141"/>
</svg>
