<svg width="48" height="40" viewBox="0 0 48 40" fill="none" xmlns="http://www.w3.org/2000/svg">
<g clip-path="url(#clip0_1323_2968)">
<path d="M31 2H26.82C26.4 0.84 25.3 0 24 0C22.7 0 21.6 0.84 21.18 2H17C15.9 2 15 2.9 15 4V20C15 21.1 15.9 22 17 22H31C32.1 22 33 21.1 33 20V4C33 2.9 32.1 2 31 2ZM24 2C24.55 2 25 2.45 25 3C25 3.55 24.55 4 24 4C23.45 4 23 3.55 23 3C23 2.45 23.45 2 24 2ZM31 20H17V4H19V7H29V4H31V20Z" fill="#1356EB"/>
</g>
<path d="M8.436 26.712L9.12 26.244C9.828 26.844 10.668 27.696 11.064 28.248L10.32 28.776C9.96 28.2 9.144 27.336 8.436 26.712ZM0.66 29.472H11.352V30.336H0.66V29.472ZM0.48 33C1.908 32.736 4.164 32.256 6.276 31.8L6.348 32.616C4.38 33.072 2.256 33.564 0.744 33.9L0.48 33ZM3.24 27.144H4.14V35.808C4.14 36.396 3.996 36.66 3.612 36.804C3.228 36.948 2.592 36.984 1.596 36.972C1.548 36.732 1.392 36.324 1.26 36.06C2.028 36.096 2.736 36.084 2.952 36.072C3.168 36.072 3.24 36.012 3.24 35.796V27.144ZM5.52 26.064L6.156 26.82C4.764 27.3 2.724 27.672 1.008 27.912C0.96 27.708 0.852 27.372 0.732 27.168C2.424 26.904 4.368 26.496 5.52 26.064ZM6.72 26.028H7.656C7.632 31.536 8.808 36.096 10.272 36.096C10.596 36.096 10.74 35.472 10.812 33.924C11.004 34.128 11.328 34.332 11.58 34.428C11.412 36.42 11.088 37.008 10.188 37.008C7.836 37.008 6.768 31.74 6.72 26.028ZM9.972 30.888L10.776 31.224C9.6 33.42 7.62 35.352 5.412 36.516C5.268 36.288 5.016 36 4.788 35.796C6.924 34.764 8.904 32.916 9.972 30.888ZM13.572 27.852H17.22V35.7H13.572V34.884H16.38V28.656H13.572V27.852ZM13.032 27.852H13.872V36.66H13.032V27.852ZM13.512 31.188H16.824V31.992H13.512V31.188ZM14.868 25.896L15.84 26.076C15.6 26.82 15.3 27.648 15.06 28.188L14.34 28.008C14.544 27.432 14.772 26.52 14.868 25.896ZM18.924 27.816H22.608V28.656H18.924V27.816ZM22.296 27.816H23.136C23.136 27.816 23.136 28.152 23.136 28.284C22.944 33.792 22.776 35.652 22.296 36.24C22.032 36.588 21.756 36.696 21.336 36.732C20.928 36.78 20.22 36.756 19.548 36.72C19.524 36.456 19.416 36.084 19.248 35.844C20.028 35.904 20.748 35.916 21.024 35.916C21.264 35.916 21.408 35.88 21.54 35.724C21.936 35.292 22.128 33.3 22.296 28.008V27.816ZM19.176 25.872L20.04 26.076C19.596 27.864 18.888 29.628 18.06 30.768C17.904 30.624 17.532 30.372 17.316 30.252C18.132 29.196 18.792 27.54 19.176 25.872ZM18.624 30.936L19.32 30.528C20.004 31.38 20.832 32.544 21.216 33.252L20.448 33.732C20.088 33 19.284 31.812 18.624 30.936ZM25.332 27.516H34.716V34.284H33.792V28.38H26.22V34.356H25.332V27.516ZM25.908 30.132H34.284V30.96H25.908V30.132ZM25.92 32.796H34.272V33.66H25.92V32.796ZM29.496 25.92H30.42V36.948H29.496V25.92ZM40.524 31.152L40.644 32.004L39.204 32.436V35.808C39.204 36.36 39.06 36.612 38.724 36.756C38.376 36.912 37.812 36.924 36.864 36.924C36.84 36.684 36.708 36.312 36.576 36.072C37.248 36.096 37.86 36.084 38.028 36.072C38.232 36.072 38.316 36.012 38.316 35.808V32.7C37.728 32.868 37.176 33.036 36.684 33.168L36.444 32.268C36.96 32.148 37.608 31.98 38.316 31.776V29.244H36.612V28.368H38.316V25.968H39.204V28.368H40.548V29.244H39.204V31.524L40.524 31.152ZM46.032 31.26H43.164C43.56 32.232 44.088 33.156 44.748 33.96C45.336 33.144 45.768 32.22 46.032 31.26ZM46.512 30.42L47.088 30.612C46.776 32.088 46.188 33.468 45.336 34.62C45.984 35.268 46.716 35.796 47.52 36.132C47.304 36.312 47.028 36.648 46.896 36.888C46.104 36.504 45.396 35.952 44.76 35.292C44.16 35.952 43.452 36.504 42.636 36.948C42.504 36.732 42.252 36.456 42.036 36.288C42.864 35.868 43.584 35.304 44.196 34.644C43.404 33.66 42.78 32.52 42.324 31.26H41.964V36.9H41.088V26.364H46.716C46.716 26.364 46.716 26.616 46.704 26.748C46.632 28.428 46.524 29.112 46.272 29.376C46.044 29.592 45.792 29.664 45.396 29.688C45.012 29.712 44.256 29.7 43.464 29.664C43.452 29.424 43.356 29.124 43.212 28.908C44.004 28.98 44.784 28.98 45.024 28.98C45.276 28.98 45.42 28.968 45.504 28.884C45.66 28.74 45.732 28.272 45.78 27.192H41.964V30.456H46.356L46.512 30.42Z" fill="#1356EB"/>
<defs>
<clipPath id="clip0_1323_2968">
<rect width="24" height="24" fill="white" transform="translate(12)"/>
</clipPath>
</defs>
</svg>
