<svg width="56" height="76" viewBox="0 0 56 76" fill="none" xmlns="http://www.w3.org/2000/svg">
<path d="M37 20.25C37 20.8467 36.7629 21.419 36.341 21.841C35.919 22.2629 35.3467 22.5 34.75 22.5H22C21.4033 22.5 20.831 22.2629 20.409 21.841C19.9871 21.419 19.75 20.8467 19.75 20.25C19.75 19.6533 19.9871 19.081 20.409 18.659C20.831 18.2371 21.4033 18 22 18H34.75C35.3467 18 35.919 18.2371 36.341 18.659C36.7629 19.081 37 19.6533 37 20.25ZM34.75 25.5H22C21.4033 25.5 20.831 25.7371 20.409 26.159C19.9871 26.581 19.75 27.1533 19.75 27.75C19.75 28.3467 19.9871 28.919 20.409 29.341C20.831 29.7629 21.4033 30 22 30H34.75C35.3467 30 35.919 29.7629 36.341 29.341C36.7629 28.919 37 28.3467 37 27.75C37 27.1533 36.7629 26.581 36.341 26.159C35.919 25.7371 35.3467 25.5 34.75 25.5ZM48.25 23.25C48.2445 28.42 46.1883 33.3768 42.5326 37.0326C38.8768 40.6883 33.92 42.7445 28.75 42.75H13C12.0054 42.75 11.0516 42.3549 10.3483 41.6516C9.64509 40.9484 9.25 39.9946 9.25 39V23.25C9.25 18.0783 11.3045 13.1184 14.9614 9.46142C18.6184 5.80446 23.5783 3.75 28.75 3.75C33.9217 3.75 38.8816 5.80446 42.5386 9.46142C46.1955 13.1184 48.25 18.0783 48.25 23.25ZM43.75 23.25C43.75 19.2718 42.1696 15.4564 39.3566 12.6434C36.5436 9.83035 32.7282 8.25 28.75 8.25C24.7718 8.25 20.9564 9.83035 18.1434 12.6434C15.3304 15.4564 13.75 19.2718 13.75 23.25V38.25H28.75C32.7269 38.2455 36.5396 36.6637 39.3517 33.8517C42.1637 31.0396 43.7455 27.2269 43.75 23.25Z" fill="url(#paint0_linear_776_11371)"/>
<path d="M2.73 68.352H11.354V74.092H10.276V69.22H3.752V74.12H2.73V68.352ZM3.318 70.536H10.668V71.348H3.318V70.536ZM2.198 62.402H6.664V63.256H2.198V62.402ZM0.686 64.6H7.028V65.454H0.686V64.6ZM3.318 72.734H10.668V73.602H3.318V72.734ZM3.598 62.71H4.606V64.096C4.606 65.454 4.2 67.33 1.232 68.66C1.092 68.45 0.798 68.114 0.56 67.946C3.388 66.826 3.598 65.188 3.598 64.082V62.71ZM2.268 61.198L3.22 61.394C2.856 62.598 2.212 63.76 1.526 64.53C1.344 64.39 0.924 64.124 0.686 64.026C1.4 63.312 1.96 62.262 2.268 61.198ZM4.298 65.664C4.802 65.93 6.51 66.966 6.916 67.246L6.188 67.974C5.67 67.54 4.214 66.504 3.612 66.126L4.298 65.664ZM8.596 63.326V66.308H11.508V63.326H8.596ZM7.616 62.388H12.544V67.274H7.616V62.388ZM18.172 70.83H19.208V72.65C19.208 72.986 19.334 73.042 20.09 73.042C20.426 73.042 22.218 73.042 22.68 73.042C23.268 73.042 23.366 72.902 23.436 71.768C23.646 71.936 24.08 72.076 24.36 72.132C24.22 73.616 23.912 73.98 22.764 73.98C22.456 73.98 20.328 73.98 20.02 73.98C18.536 73.98 18.172 73.7 18.172 72.664V70.83ZM19.53 70.62L20.202 70.032C21 70.382 21.952 70.956 22.414 71.46L21.714 72.104C21.266 71.614 20.342 70.998 19.53 70.62ZM24.164 71.264L24.99 70.774C25.956 71.446 27.006 72.44 27.454 73.224L26.572 73.77C26.152 73.014 25.144 71.978 24.164 71.264ZM16.436 70.886L17.332 71.222C16.94 72.188 16.352 73.196 15.372 73.798L14.546 73.21C15.456 72.692 16.1 71.768 16.436 70.886ZM16.03 66.378H25.76V70.228H15.946V69.5H24.724V67.12H16.03V66.378ZM16.464 67.932H25.074V68.618H16.464V67.932ZM15.092 61.982H20.482V62.682H15.092V61.982ZM15.4 63.354H20.3V64.054H15.4V63.354ZM17.346 61.254H18.326V66.168H17.346V61.254ZM21.056 61.982H26.81V62.682H21.056V61.982ZM20.916 64.754H27.076V65.454H20.916V64.754ZM21.378 63.354H26.586V64.054H21.378V63.354ZM23.366 61.254H24.36V66.168H23.366V61.254ZM14.924 64.922C16.338 64.852 18.48 64.726 20.594 64.586L20.58 65.286C18.536 65.44 16.45 65.594 14.966 65.692L14.924 64.922ZM31.514 67.764V71.852H30.478V68.73H28.644V67.764H31.514ZM31.514 71.292C32.186 72.314 33.418 72.804 35.07 72.874C36.61 72.916 39.816 72.888 41.496 72.776C41.356 73.014 41.202 73.504 41.146 73.826C39.592 73.882 36.638 73.91 35.07 73.868C33.236 73.784 31.962 73.294 31.052 72.188C30.408 72.79 29.722 73.392 29.008 74.008L28.462 72.958C29.092 72.51 29.89 71.894 30.576 71.292H31.514ZM29.246 62.066L29.946 61.422C30.786 61.856 31.794 62.556 32.27 63.102L31.542 63.816C31.08 63.27 30.1 62.542 29.246 62.066ZM28.7 64.922L29.4 64.236C30.268 64.642 31.332 65.314 31.85 65.86L31.122 66.602C30.632 66.07 29.596 65.356 28.7 64.922ZM33.376 62.052H40.418V63.046H33.376V62.052ZM32.466 65.328H41.44V66.322H32.466V65.328ZM35.392 65.832L36.54 66.168C35.966 67.666 35.196 69.542 34.552 70.704L33.698 70.396C34.3 69.192 35.028 67.218 35.392 65.832ZM32.564 70.242C34.398 70.13 37.366 69.892 40.18 69.654V70.606C37.492 70.872 34.65 71.124 32.732 71.292L32.564 70.242ZM37.856 67.568L38.696 67.148C39.774 68.408 40.936 70.13 41.37 71.278L40.46 71.782C40.04 70.634 38.934 68.87 37.856 67.568ZM53.088 63.284L52.164 63.704C52.01 63.172 51.604 62.332 51.226 61.716L52.094 61.366C52.5 61.968 52.92 62.766 53.088 63.284ZM44.408 69.094L47.138 68.604C47.11 68.87 47.11 69.248 47.124 69.458C43.75 70.144 43.288 70.27 42.994 70.438C42.952 70.242 42.798 69.766 42.686 69.528C42.98 69.472 43.316 69.108 43.722 68.604C43.988 68.324 44.534 67.61 45.136 66.686C43.414 66.924 43.092 66.994 42.896 67.092C42.854 66.896 42.686 66.406 42.588 66.14C42.812 66.084 43.05 65.748 43.344 65.272C43.652 64.81 44.632 62.976 45.15 61.31L46.102 61.73C45.5 63.214 44.716 64.782 43.904 66L45.696 65.804C46.032 65.272 46.34 64.726 46.62 64.18L47.46 64.67C46.564 66.238 45.486 67.82 44.408 69.094ZM42.868 73.21L42.672 72.216C43.848 71.978 45.626 71.558 47.376 71.166L47.474 72.02C45.85 72.454 44.142 72.874 42.868 73.21ZM49.49 70.2V72.104H51.73V70.2H49.49ZM51.73 66.518V64.754H49.49V66.518H51.73ZM51.73 69.262V67.47H49.49V69.262H51.73ZM55.342 72.104V73.07H49.49V74.092H48.51V65.972C48.202 66.406 47.908 66.826 47.572 67.19C47.488 66.952 47.236 66.504 47.054 66.28C48.174 64.992 49.154 62.962 49.644 61.366L50.638 61.646C50.4 62.346 50.092 63.074 49.742 63.802H55.146V64.754H52.71V66.518H54.796V67.47H52.71V69.262H54.824V70.2H52.71V72.104H55.342Z" fill="#1356EB"/>
<defs>
<linearGradient id="paint0_linear_776_11371" x1="21" y1="4" x2="48" y2="43" gradientUnits="userSpaceOnUse">
<stop stop-color="#1356EB"/>
<stop offset="1" stop-color="#638FF0"/>
</linearGradient>
</defs>
</svg>
