<svg width="28" height="28" viewBox="0 0 28 28" fill="none" xmlns="http://www.w3.org/2000/svg">
<path d="M7 14.413L8.413 13L12 16.586L19.585 9L21 10.415L12 19.414L7 14.413Z" fill="white"/>
<path d="M6.22202 2.35943C8.52431 0.821086 11.2311 0 14 0C17.713 0 21.274 1.475 23.8995 4.1005C26.525 6.72601 28 10.287 28 14C28 16.7689 27.1789 19.4757 25.6406 21.778C24.1022 24.0803 21.9157 25.8747 19.3576 26.9343C16.7994 27.9939 13.9845 28.2712 11.2687 27.731C8.55301 27.1908 6.05845 25.8574 4.10051 23.8995C2.14258 21.9416 0.809205 19.447 0.269012 16.7313C-0.271181 14.0155 0.00606596 11.2006 1.06569 8.64243C2.12532 6.08427 3.91973 3.89777 6.22202 2.35943ZM7.33316 23.9776C9.30655 25.2962 11.6266 26 14 26C17.1826 26 20.2348 24.7357 22.4853 22.4853C24.7357 20.2348 26 17.1826 26 14C26 11.6266 25.2962 9.30655 23.9776 7.33316C22.6591 5.35977 20.7849 3.8217 18.5922 2.91345C16.3995 2.00519 13.9867 1.76755 11.6589 2.23058C9.33115 2.6936 7.19296 3.83649 5.51472 5.51472C3.83649 7.19295 2.69361 9.33114 2.23058 11.6589C1.76756 13.9867 2.0052 16.3995 2.91345 18.5922C3.8217 20.7849 5.35977 22.6591 7.33316 23.9776Z" fill="white"/>
</svg>
