<svg width="48" height="40" viewBox="0 0 48 40" fill="none" xmlns="http://www.w3.org/2000/svg">
<g clip-path="url(#clip0_355_8490)">
<path d="M24 4.375C25.45 4.375 26.625 5.55 26.625 7C26.625 8.45 25.45 9.625 24 9.625C22.55 9.625 21.375 8.45 21.375 7C21.375 5.55 22.55 4.375 24 4.375ZM24 15.625C27.7125 15.625 31.625 17.45 31.625 18.25V19.625H16.375V18.25C16.375 17.45 20.2875 15.625 24 15.625ZM24 2C21.2375 2 19 4.2375 19 7C19 9.7625 21.2375 12 24 12C26.7625 12 29 9.7625 29 7C29 4.2375 26.7625 2 24 2ZM24 13.25C20.6625 13.25 14 14.925 14 18.25V22H34V18.25C34 14.925 27.3375 13.25 24 13.25Z" fill="#414141"/>
</g>
<path d="M20.436 26.712L21.12 26.244C21.828 26.844 22.668 27.696 23.064 28.248L22.32 28.776C21.96 28.2 21.144 27.336 20.436 26.712ZM12.66 29.472H23.352V30.336H12.66V29.472ZM12.48 33C13.908 32.736 16.164 32.256 18.276 31.8L18.348 32.616C16.38 33.072 14.256 33.564 12.744 33.9L12.48 33ZM15.24 27.144H16.14V35.808C16.14 36.396 15.996 36.66 15.612 36.804C15.228 36.948 14.592 36.984 13.596 36.972C13.548 36.732 13.392 36.324 13.26 36.06C14.028 36.096 14.736 36.084 14.952 36.072C15.168 36.072 15.24 36.012 15.24 35.796V27.144ZM17.52 26.064L18.156 26.82C16.764 27.3 14.724 27.672 13.008 27.912C12.96 27.708 12.852 27.372 12.732 27.168C14.424 26.904 16.368 26.496 17.52 26.064ZM18.72 26.028H19.656C19.632 31.536 20.808 36.096 22.272 36.096C22.596 36.096 22.74 35.472 22.812 33.924C23.004 34.128 23.328 34.332 23.58 34.428C23.412 36.42 23.088 37.008 22.188 37.008C19.836 37.008 18.768 31.74 18.72 26.028ZM21.972 30.888L22.776 31.224C21.6 33.42 19.62 35.352 17.412 36.516C17.268 36.288 17.016 36 16.788 35.796C18.924 34.764 20.904 32.916 21.972 30.888ZM25.572 27.852H29.22V35.7H25.572V34.884H28.38V28.656H25.572V27.852ZM25.032 27.852H25.872V36.66H25.032V27.852ZM25.512 31.188H28.824V31.992H25.512V31.188ZM26.868 25.896L27.84 26.076C27.6 26.82 27.3 27.648 27.06 28.188L26.34 28.008C26.544 27.432 26.772 26.52 26.868 25.896ZM30.924 27.816H34.608V28.656H30.924V27.816ZM34.296 27.816H35.136C35.136 27.816 35.136 28.152 35.136 28.284C34.944 33.792 34.776 35.652 34.296 36.24C34.032 36.588 33.756 36.696 33.336 36.732C32.928 36.78 32.22 36.756 31.548 36.72C31.524 36.456 31.416 36.084 31.248 35.844C32.028 35.904 32.748 35.916 33.024 35.916C33.264 35.916 33.408 35.88 33.54 35.724C33.936 35.292 34.128 33.3 34.296 28.008V27.816ZM31.176 25.872L32.04 26.076C31.596 27.864 30.888 29.628 30.06 30.768C29.904 30.624 29.532 30.372 29.316 30.252C30.132 29.196 30.792 27.54 31.176 25.872ZM30.624 30.936L31.32 30.528C32.004 31.38 32.832 32.544 33.216 33.252L32.448 33.732C32.088 33 31.284 31.812 30.624 30.936Z" fill="#414141"/>
<defs>
<clipPath id="clip0_355_8490">
<rect width="24" height="24" fill="white" transform="translate(12)"/>
</clipPath>
</defs>
</svg>
