<svg width="48" height="50" viewBox="0 0 48 50" fill="none" xmlns="http://www.w3.org/2000/svg">
<rect x="8" width="32" height="32" rx="16" fill="white"/>
<path d="M17 25.5C16.45 25.5 15.979 25.3043 15.587 24.913C15.1957 24.521 15 24.05 15 23.5V9.5C15 8.95 15.1957 8.47933 15.587 8.088C15.979 7.696 16.45 7.5 17 7.5H18V6.475C18 6.19167 18.0957 5.95833 18.287 5.775C18.479 5.59167 18.7167 5.5 19 5.5C19.2833 5.5 19.521 5.59567 19.713 5.787C19.9043 5.979 20 6.21667 20 6.5V7.5H28V6.475C28 6.19167 28.096 5.95833 28.288 5.775C28.4793 5.59167 28.7167 5.5 29 5.5C29.2833 5.5 29.5207 5.59567 29.712 5.787C29.904 5.979 30 6.21667 30 6.5V7.5H31C31.55 7.5 32.021 7.696 32.413 8.088C32.8043 8.47933 33 8.95 33 9.5V23.5C33 24.05 32.8043 24.521 32.413 24.913C32.021 25.3043 31.55 25.5 31 25.5H17ZM17 23.5H31V13.5H17V23.5Z" fill="#1356EB"/>
<path d="M12.396 42.908C13.56 42.668 15.288 42.236 16.908 41.828L17.088 43.208C15.612 43.604 14.016 44.024 12.78 44.348L12.396 42.908ZM12.516 39.092H16.896V40.46H12.516V39.092ZM14.076 36.812H15.528V46.424C15.528 47.132 15.396 47.492 14.988 47.72C14.568 47.948 13.992 47.984 13.116 47.984C13.08 47.6 12.888 47 12.708 46.628C13.176 46.64 13.692 46.64 13.848 46.64C14.016 46.64 14.076 46.58 14.076 46.412V36.812ZM17.088 37.724H23.616V39.164H17.088V37.724ZM20.136 38.24H21.696V46.208C21.696 47.036 21.516 47.48 20.964 47.72C20.412 47.984 19.608 48.008 18.48 48.008C18.408 47.564 18.132 46.844 17.904 46.436C18.66 46.484 19.548 46.484 19.812 46.472C20.052 46.472 20.136 46.4 20.136 46.184V38.24ZM24.54 41.048H35.472V42.476H24.54V41.048ZM29.904 38.276H34.176V39.656H29.904V38.276ZM28.968 36.812H30.492V41.732H28.968V36.812ZM28.968 41.972H30.492V48.068H28.968V41.972ZM30.06 44.264L30.78 43.1C31.98 43.448 33.816 44.084 34.752 44.54L33.984 45.836C33.108 45.38 31.32 44.672 30.06 44.264Z" fill="white"/>
</svg>
